Coordinates
version=1
nRows=5
nColumns=107
inDegrees=yes

Units are S.I. units (second, meters, Newtons, ...)
If the header above contains a line with 'inDegrees', this indicates whether rotational values are in degrees (yes) or radians (no).

endheader
time	sternoclavicular_r2	sternoclavicular_r3	unrotscap_r3	unrotscap_r2	acromioclavicular_r2	acromioclavicular_r3	acromioclavicular_r1	unrothum_r1	unrothum_r3	unrothum_r2	elv_angle	shoulder_elv	shoulder1_r2	shoulder_rot	elbow_flexion	pro_sup	deviation	flexion	proximal_distal_r1	proximal_distal_r3	cmc_flexion	cmc_abduction	mp_flexion	ip_flexion	mcp2_flexion	mcp2_abduction	pm2_flexion	md2_flexion	mcp3_flexion	mcp3_abduction	pm3_flexion	md3_flexion	mcp4_flexion	mcp4_abduction	pm4_flexion	md4_flexion	mcp5_flexion	mcp5_abduction	pm5_flexion	md5_flexion	bicpt_tx	bicpt_ty	bicpt_tz	bicpt2_tx	bicpt2_ty	bicpt2_tz	ptpt_tx	ptpt_ty	ptpt_tz	FCUpt_tx	FCUpt_ty	FCUpt_tz	EDCpt_tx	EDCpt_ty	EDCpt_tz	APLpt_tx	APLpt_ty	APLpt_tz	FPLpt_tx	FPLpt_ty	FPLpt_tz	FPLpt2_tx	FPLpt2_ty	FPLpt2_tz	PEC1pt2_tx	PEC1pt2_ty	PEC1pt2_tz	PEC1pt3_tx	PEC1pt3_ty	PEC1pt3_tz	PEC2pt2_tx	PEC2pt2_ty	PEC2pt2_tz	PEC2pt3_tx	PEC2pt3_ty	PEC2pt3_tz	PEC3pt2_tx	PEC3pt2_ty	PEC3pt2_tz	PEC3pt3_tx	PEC3pt3_ty	PEC3pt3_tz	DELT2pt2a_tx	DELT2pt2a_ty	DELT2pt2a_tz	DELT2pt2_tx	DELT2pt2_ty	DELT2pt2_tz	LAT1pt2_tx	LAT1pt2_ty	LAT1pt2_tz	LAT1pt3_tx	LAT1pt3_ty	LAT1pt3_tz	LAT2pt2_tx	LAT2pt2_ty	LAT2pt2_tz	LAT2pt3_tx	LAT2pt3_ty	LAT2pt3_tz	LAT3pt2_tx	LAT3pt2_ty	LAT3pt2_tz	LAT3pt3_tx	LAT3pt3_ty	LAT3pt3_tz
      0.43333333	     -0.32207596	      0.13641617	     -0.13641617	      0.32207596	     -0.06521383	      0.52703523	      0.23689871	     -0.23689871	     -0.52703523	      0.06521383	     99.73478377	     76.25434527	     -1.74070036	    -25.36750199	     28.79269929	     41.66826204	      0.11758872	     -0.02230311	      0.14826701	     -0.01115156	     36.37633633	     -2.83434455	      6.79904535	      8.68501447	     -4.23804615	     13.57330013	      7.50981035	    -33.73469654	    -17.72590656	     -0.31158413	      7.85693283	     11.34443048	    -19.95120078	     -6.59022142	    -11.83436889	     19.68827332	    -34.01720149	    -14.17841894	     -6.40558809	      5.00387567	      0.00085237	     -0.03090008	     -0.00483156	      0.01657435	     -0.01802168	     -0.00728999	      0.00447119	     -0.06689081	     -0.00340660	      0.00794862	     -0.18345997	     -0.00039722	     -0.00500018	      0.00144853	      0.00013369	      0.00002240	      0.00000896	      0.00004481	      0.00002868	      0.00008603	      0.00004839	     -0.00001282	     -0.00017428	     -0.00020913	      0.00249945	      0.00876926	      0.00610035	     -0.00817617	      0.01974142	     -0.01872469	      0.00249945	      0.00876926	      0.00610035	      0.00055073	      0.01830106	     -0.00961653	      0.00395125	      0.00487647	      0.01597572	      0.00000000	      0.00777652	      0.00000000	     -0.00715944	     -0.03308594	     -0.00641208	      0.01668095	     -0.00060223	     -0.00537961	     -0.00088963	      0.01491197	     -0.00610035	      0.00245709	      0.02152069	     -0.01779270	     -0.00597326	      0.01292089	     -0.00546490	     -0.01245489	      0.02728213	     -0.03054413	     -0.02338469	      0.01444597	     -0.00732890	     -0.01550506	      0.03151849	     -0.03816957
      0.46666667	     -0.32654661	      0.13830973	     -0.13830973	      0.32654661	     -0.06611905	      0.53435087	      0.24018704	     -0.24018704	     -0.53435087	      0.06611905	     98.75853461	     77.31281258	     -1.72366159	    -19.97884452	     28.53461822	     36.45929739	      0.14586724	     -0.01186074	      0.18054683	     -0.00593037	     35.76904748	     -2.71652985	      8.82586275	      5.32818299	     -3.94136885	     13.59084372	      7.98284395	    -35.76504880	    -17.30440547	     -0.36886306	      7.02051476	     12.17785374	    -19.81293371	     -6.58791844	    -12.61621858	     22.49294233	    -34.31473613	    -14.18607654	     -5.88760860	      4.97721521	      0.00084384	     -0.03087050	     -0.00482679	      0.01655345	     -0.01795157	     -0.00783922	      0.00485607	     -0.06664194	     -0.00298699	      0.00742570	     -0.18356694	     -0.00035656	     -0.00437511	      0.00123815	      0.00016844	      0.00001202	      0.00000481	      0.00002404	      0.00001538	      0.00004615	      0.00002596	     -0.00001284	     -0.00018344	     -0.00022012	      0.00253414	      0.00889098	      0.00618503	     -0.00828966	      0.02001545	     -0.01898461	      0.00253414	      0.00889098	      0.00618503	      0.00055837	      0.01855509	     -0.00975001	      0.00399107	      0.00494416	      0.01607212	      0.00000000	      0.00799549	      0.00000000	     -0.00725882	     -0.03354520	     -0.00659383	      0.01376404	     -0.00043129	     -0.00329085	     -0.00090198	      0.01511896	     -0.00618503	      0.00249119	      0.02181941	     -0.01803967	     -0.00605618	      0.01310024	     -0.00554076	     -0.01262777	      0.02766083	     -0.03096810	     -0.02370928	      0.01464650	     -0.00743063	     -0.01572029	      0.03195599	     -0.03869939
      0.50000000	     -0.32514567	      0.13771636	     -0.13771636	      0.32514567	     -0.06583538	      0.53205842	      0.23915660	     -0.23915660	     -0.53205842	      0.06583538	     99.02772297	     76.98112778	     -1.72835982	    -21.53100183	     28.62460135	     37.88273816	      0.13917848	     -0.01938296	      0.17302978	     -0.00969148	     36.00358541	     -2.48903061	      7.92957592	      6.26503327	     -3.40117351	     13.59949172	      7.61768835	    -35.63538313	    -16.91866421	     -0.26715326	      7.30934400	     11.62137249	    -19.04290024	     -6.50028266	    -12.72102977	     21.44758349	    -33.77690660	    -14.19185976	     -6.48941482	      4.95523543	      0.00084681	     -0.03088082	     -0.00482845	      0.01656532	     -0.01797601	     -0.00769291	      0.00475089	     -0.06670995	     -0.00310166	      0.00756777	     -0.18353847	     -0.00036970	     -0.00454592	      0.00129481	      0.00016041	      0.00001952	      0.00000781	      0.00003903	      0.00002498	      0.00007495	      0.00004216	     -0.00001285	     -0.00017995	     -0.00021594	      0.00252327	      0.00885284	      0.00615850	     -0.00825409	      0.01992958	     -0.01890316	      0.00252327	      0.00885284	      0.00615850	      0.00055598	      0.01847549	     -0.00970818	      0.00397864	      0.00492295	      0.01604220	      0.00000000	      0.00792654	      0.00000000	     -0.00722768	     -0.03340128	     -0.00653661	      0.01464405	     -0.00047942	     -0.00384796	     -0.00089811	      0.01505410	     -0.00615850	      0.00248051	      0.02172580	     -0.01796228	     -0.00603019	      0.01304404	     -0.00551699	     -0.01257359	      0.02754216	     -0.03083524	     -0.02360757	      0.01458366	     -0.00739875	     -0.01565284	      0.03181889	     -0.03853336
      0.53333333	     -0.32752307	      0.13872331	     -0.13872331	      0.32752307	     -0.06631676	      0.53594871	      0.24090526	     -0.24090526	     -0.53594871	      0.06631676	     98.54452695	     77.54399695	     -1.71992646	    -18.83483548	     28.51822207	     35.10607114	      0.14908117	     -0.01472777	      0.18413347	     -0.00736389	     36.19444606	     -2.07528218	      6.37142468	      7.82473769	     -3.40233052	     13.60750236	      7.36955287	    -34.47120239	    -17.17847895	     -0.29318047	      7.67226738	     11.00447573	    -19.06525610	     -6.52442318	    -12.63001271	     19.83611286	    -33.98360893	    -14.17114205	     -7.30967708	      5.00792117	      0.00084329	     -0.03086862	     -0.00482649	      0.01653787	     -0.01794711	     -0.00797567	      0.00495606	     -0.06657729	     -0.00287798	      0.00729122	     -0.18359347	     -0.00034266	     -0.00421272	      0.00118486	      0.00017506	      0.00001489	      0.00000596	      0.00002978	      0.00001906	      0.00005717	      0.00003216	     -0.00001284	     -0.00017707	     -0.00021248	      0.00254172	      0.00891757	      0.00620352	     -0.00831445	      0.02007530	     -0.01904138	      0.00254172	      0.00891757	      0.00620352	      0.00056004	      0.01861057	     -0.00977917	      0.00399972	      0.00495895	      0.01609282	      0.00000000	      0.00804373	      0.00000000	     -0.00728053	     -0.03364551	     -0.00663387	      0.01309481	     -0.00039642	     -0.00290453	     -0.00090468	      0.01516417	     -0.00620352	      0.00249864	      0.02188466	     -0.01809361	     -0.00607428	      0.01313941	     -0.00555732	     -0.01266553	      0.02774354	     -0.03106071	     -0.02378018	      0.01469029	     -0.00745285	     -0.01576729	      0.03205155	     -0.03881511
      0.56666667	     -0.32837854	      0.13908565	     -0.13908565	      0.32837854	     -0.06648997	      0.53734859	      0.24153449	     -0.24153449	     -0.53734859	      0.06648997	     98.39909417	     77.74653810	     -1.71738817	    -17.89717896	     28.42891578	     34.31557832	      0.14908742	     -0.01835349	      0.18414057	     -0.00917675	     36.17423498	     -2.42635454	      6.71967611	      7.80759760	     -3.96585099	     13.56838443	      7.70078913	    -34.52413803	    -17.76287691	     -0.38761944	      8.25965224	     11.66475728	    -19.19270660	     -6.68603219	    -12.35531300	     20.21709307	    -34.18505777	    -14.20312274	     -7.15333156	      5.04358755	      0.00084034	     -0.03085839	     -0.00482484	      0.01652683	     -0.01792285	     -0.00805420	      0.00501447	     -0.06653952	     -0.00281430	      0.00721292	     -0.18360873	     -0.00033390	     -0.00411786	      0.00115399	      0.00017847	      0.00001850	      0.00000740	      0.00003699	      0.00002368	      0.00007103	      0.00003995	     -0.00001284	     -0.00017737	     -0.00021284	      0.00254836	      0.00894086	      0.00621973	     -0.00833616	      0.02012773	     -0.01909111	      0.00254836	      0.00894086	      0.00621973	      0.00056150	      0.01865918	     -0.00980471	      0.00400728	      0.00497190	      0.01611085	      0.00000000	      0.00808612	      0.00000000	     -0.00729954	     -0.03373339	     -0.00666904	      0.01253325	     -0.00036825	     -0.00260370	     -0.00090704	      0.01520378	     -0.00621973	      0.00250517	      0.02194182	     -0.01814087	     -0.00609015	      0.01317373	     -0.00557184	     -0.01269861	      0.02781601	     -0.03114183	     -0.02384229	      0.01472866	     -0.00747231	     -0.01580848	      0.03213526	     -0.03891649
